<svg xmlns="http://www.w3.org/2000/svg" width="431.175" height="135.944" viewBox="0 0 431.175 135.944">
  <g id="overlay_small" transform="translate(-168.86 -523.965)">
    <path id="Path_22" data-name="Path 22" d="M-.106,3.73V82.65" transform="translate(171.5 524.5)" fill="none" stroke="#000" stroke-width="5"/>
    <g id="Group_1" data-name="Group 1" transform="translate(178 -88)">
      <g id="Overlay1" transform="translate(-5 615.16)">
        <path id="Path_27" data-name="Path 27" d="M348,0" transform="translate(0.5 73.34)" fill="none" stroke="#fffe80" stroke-linecap="round" stroke-width="5"/>
        <path id="Path_18" data-name="Path 18" d="M0,0H317.388L265.84,48.659H0Z" transform="translate(0 77.967)"/>
        <path id="Path_17" data-name="Path 17" d="M0,0H423.039L343.683,74.619,0,77.528Z" transform="translate(0.461)" fill="#ffff80"/>
        <path id="Path_24" data-name="Path 24" d="M0,0H425" transform="translate(-1.5 0.34)" fill="none" stroke="#000" stroke-linecap="round" stroke-width="5"/>
        <path id="Path_20" data-name="Path 20" d="M78.032,0,1.562,74" transform="translate(345.468 0.34)" fill="none" stroke="#000" stroke-linecap="round" stroke-width="5"/>
        <line id="Line_6" data-name="Line 6" x2="266.039" y2="0.13" transform="translate(-1.539 129.21)" fill="none" stroke="#fffe80" stroke-linecap="round" stroke-width="5"/>
        <path id="Path_19" data-name="Path 19" d="M49.752,8.191-1.48,57.874" transform="translate(266.039 71.34)" fill="none" stroke="#fffe80" stroke-linecap="round" stroke-width="5"/>
        <path id="Path_28" data-name="Path 28" d="M313,0" transform="translate(2.5 78.34)" fill="none" stroke="#fffe80" stroke-width="5"/>
        <path id="Path_21" data-name="Path 21" d="M-283.349,0,62.972.413" transform="translate(283.5 74.34)" fill="none" stroke="#000" stroke-linecap="round" stroke-width="5"/>
        <path id="Path_26" data-name="Path 26" d="M-4-1l319.637.325" transform="translate(-0.137 80.34)" fill="none" stroke="#fffe80" stroke-width="5"/>
      </g>
    </g>
    <path id="Path_25" data-name="Path 25" d="M-.106,3.73V52.578" transform="translate(171.5 603.208)" fill="none" stroke="#fffe80" stroke-width="5"/>
  </g>
</svg>
